<svg width="300" height="150" viewBox="0 0 300 150" fill="none" xmlns="http://www.w3.org/2000/svg">
<g clip-path="url(#clip0_37_8)">
<rect width="150" height="150" transform="translate(75)" fill="white" fill-opacity="0.12"/>
<rect x="76" y="1" width="145" height="148" fill="white" stroke="black" stroke-width="2"/>
<line x1="150.5" x2="150.5" y2="150" stroke="black" stroke-dasharray="4 4"/>
<line x1="73" y1="74.5" x2="222" y2="74.5" stroke="black" stroke-dasharray="4 4"/>
<path d="M132.56 13.56C146.6 16.68 171.43 19.67 183.91 20.32L182.48 29.94C169.48 28.77 146.73 25.91 130.87 23.05L132.56 13.56ZM186.51 50.74C184.04 52.43 180.79 55.16 179.23 56.46C174.29 61.01 159.73 74.66 154.79 79.73C156.22 79.6 158.56 79.6 159.99 79.99C164.93 80.51 167.92 83.89 169.74 89.22C171.04 92.99 172.86 99.62 174.16 103.78C175.72 108.72 178.71 110.93 185.47 110.93C193.92 110.93 203.8 109.76 210.04 108.2L209.26 119.12C203.8 120.16 191.84 121.07 184.95 121.07C174.42 121.07 168.05 118.6 165.19 110.02C163.89 106.12 162.07 98.45 160.77 94.81C159.34 90.26 156.48 87.79 152.84 87.79C149.33 87.79 146.21 89.61 143.22 92.6C138.41 97.15 124.24 112.1 116.83 121.46L106.95 114.57C108.64 113.27 110.98 111.19 113.45 108.72C118.78 103.52 154.14 68.03 166.88 55.29C156.61 55.81 134.77 57.76 126.84 58.41C122.55 58.67 119.17 59.19 116.44 59.58L115.53 48.27C118.52 48.53 122.29 48.53 126.45 48.53C133.99 48.27 164.15 46.32 174.03 45.02C176.24 44.76 178.97 44.11 180.27 43.59L186.51 50.74Z" fill="black" fill-opacity="0.4"/>
</g>
<defs>
<clipPath id="clip0_37_8">
<rect width="150" height="150" fill="white" transform="translate(75)"/>
</clipPath>
</defs>
</svg>
