<svg width="300" height="150" viewBox="0 0 300 150" fill="none" xmlns="http://www.w3.org/2000/svg">
<g clip-path="url(#clip0_31_29)">
<rect width="150" height="150" transform="translate(75)" fill="white" fill-opacity="0.12"/>
<rect x="76" y="1" width="145" height="148" fill="white" stroke="black" stroke-width="2"/>
<path d="M148.23 36.17C147.71 37.73 147.19 40.07 146.8 41.89C144.59 52.81 142.38 73.35 142.38 91.16C142.38 108.06 146.02 123.66 150.05 135.88L140.56 138.74C136.79 127.17 133.28 108.71 133.28 92.2C133.28 74.39 135.88 53.33 137.05 42.15C137.31 39.81 137.44 37.47 137.44 35.78L148.23 36.17ZM127.3 52.16C150.18 52.16 172.8 50.34 190.74 46.31L190.87 55.93C172.15 59.18 146.54 61.13 127.17 61.13C121.58 61.13 111.44 60.61 106.11 60.35L105.85 50.6C110.4 51.38 121.71 52.16 127.3 52.16ZM181.51 67.5C180.73 69.19 179.56 72.7 178.78 74.78C171.11 98.83 158.11 116.9 144.46 127.43C136.14 133.8 125.74 138.61 116.51 138.61C107.93 138.61 101.17 133.41 101.17 122.36C101.17 104.55 117.68 86.22 136.92 78.81C145.63 75.43 156.16 73.48 164.61 73.48C189.18 73.48 204.65 87.78 204.65 105.98C204.65 124.57 192.3 140.82 162.14 145.63L156.55 136.92C179.95 134.32 194.51 122.23 194.51 105.46C194.51 92.85 183.85 81.8 164.48 81.8C153.56 81.8 143.94 84.92 137.31 87.91C122.62 94.41 110.92 108.71 110.92 120.67C110.92 126 113.52 128.6 118.33 128.6C124.83 128.6 133.28 124.96 141.6 117.68C153.17 107.54 163.83 93.5 169.81 72.44C170.33 70.49 170.98 66.98 171.11 64.9L181.51 67.5Z" fill="black" fill-opacity="0.4"/>
<line x1="150.5" x2="150.5" y2="150" stroke="black" stroke-dasharray="4 4"/>
<line x1="73" y1="74.5" x2="222" y2="74.5" stroke="black" stroke-dasharray="4 4"/>
</g>
<defs>
<clipPath id="clip0_31_29">
<rect width="150" height="150" fill="white" transform="translate(75)"/>
</clipPath>
</defs>
</svg>
