<svg width="300" height="150" viewBox="0 0 300 150" fill="none" xmlns="http://www.w3.org/2000/svg">
<g clip-path="url(#clip0_37_20)">
<rect width="150" height="150" transform="translate(75)" fill="white" fill-opacity="0.12"/>
<rect x="76" y="1" width="145" height="148" fill="white" stroke="black" stroke-width="2"/>
<path d="M145.3 23.26C144.91 25.6 144.65 29.11 144.52 32.23C144.13 39.9 143.48 59.79 143.48 73.31C143.48 86.83 144.13 107.11 144.13 115.3C144.13 127.26 139.71 131.16 132.56 131.16C122.42 131.16 105.52 121.28 105.52 109.58C105.52 98.14 120.99 86.05 137.11 79.94C148.68 75.39 161.68 73.05 171.95 73.05C191.06 73.05 204.71 83.32 204.71 98.92C204.71 114.65 194.83 124.66 176.89 128.82C171.17 130.12 165.32 130.38 160.77 130.64L157.13 120.24C162.07 120.24 167.53 120.37 172.47 119.33C183.78 117.12 194.18 111.01 194.18 98.92C194.18 87.87 184.17 82.02 171.95 82.02C160.25 82.02 149.59 84.49 138.54 88.91C125.8 93.85 115.79 102.56 115.79 109.19C115.79 115.04 124.89 120.24 129.96 120.24C132.95 120.24 134.64 118.16 134.64 113.87C134.64 106.33 133.99 88.26 133.99 73.83C133.99 58.88 134.51 37.69 134.51 32.36C134.51 29.89 134.25 25.34 133.86 23.26H145.3ZM185.73 37.69C194.96 42.5 209.13 51.34 215.37 56.54L210.17 64.86C203.8 58.88 189.24 49.91 180.92 45.49L185.73 37.69ZM107.73 46.53C114.88 47.44 119.56 47.57 124.24 47.57C137.11 47.57 157.78 44.84 170.65 40.94L170.91 51.08C157.52 54.33 136.2 57.19 124.5 57.19C117.22 57.19 112.28 56.93 107.99 56.54L107.73 46.53Z" fill="black" fill-opacity="0.4"/>
<line x1="150.5" x2="150.5" y2="150" stroke="black" stroke-dasharray="4 4"/>
<line x1="73" y1="74.5" x2="222" y2="74.5" stroke="black" stroke-dasharray="4 4"/>
</g>
<defs>
<clipPath id="clip0_37_20">
<rect width="150" height="150" fill="white" transform="translate(75)"/>
</clipPath>
</defs>
</svg>
